<svg xmlns="http://www.w3.org/2000/svg" viewBox="0 0 500 500"><defs><style>.cls-1{fill:#fae300;}.cls-2{fill:#391b1b;}</style></defs><g id="레이어_2" data-name="레이어 2"><g id="Layer_1" data-name="Layer 1"><rect class="cls-1" width="500" height="500" rx="40.28"/><path class="cls-2" d="M248.51,77.59c-106.62,0-193,68.32-193,152.6,0,54.86,36.62,102.93,91.58,129.83-4,15.08-14.62,54.62-16.75,63.07-2.61,10.5,3.86,10.36,8.09,7.53,3.32-2.21,52.9-35.91,74.29-50.46a244.33,244.33,0,0,0,35.83,2.64c106.6,0,193-68.34,193-152.61s-86.43-152.6-193-152.6"/><path class="cls-1" d="M170.83,185.25H114.38a9.6,9.6,0,1,0,0,19.2h18.35v67.62a9.39,9.39,0,0,0,9.36,9.37h2.06a9.41,9.41,0,0,0,9.35-9.37V204.45h17.33a9.6,9.6,0,1,0,0-19.2Z"/><path class="cls-1" d="M306.49,263.38H280.24V194.32a10.42,10.42,0,1,0-20.83,0v74.44a10.16,10.16,0,0,0,.16,1.67,9.07,9.07,0,0,0-.16,1.66,8.71,8.71,0,0,0,8.71,8.72h38.37a8.72,8.72,0,0,0,0-17.43Z"/><path class="cls-1" d="M390.37,266.55l-29.25-38.42,26.42-26.44a9.16,9.16,0,1,0-13-13l-32.72,32.72V194.32a10.42,10.42,0,1,0-20.83,0v76.73a10.42,10.42,0,0,0,20.83,0V247.37l5.95-5.94,27.66,36.31a9.32,9.32,0,0,0,14.9-11.19Z"/><path class="cls-1" d="M251.61,269l-28.13-77-.09-.08c-1.81-4.69-7-8.11-13.18-8.11-6.87,0-12.55,4.2-13.68,9.69-.19.41-.38.82-.54,1.27L168.33,269a9.33,9.33,0,1,0,17.6,6.19l4.79-13.67h38.5L234,275.23a9.33,9.33,0,1,0,17.6-6.19Zm-54.78-24.91,12.94-36.92c.14,0,.27,0,.41,0l12.93,36.88Z"/></g></g></svg>